<svg xmlns="http://www.w3.org/2000/svg" width="256" height="256"><path fill-opacity=".016" d="M0 128.004v128.004l128.25-.254 128.25-.254.254-127.75L257.008 0H0v128.004m.485.496c0 70.4.119 99.053.265 63.672.146-35.38.146-92.98 0-128C.604 29.153.485 58.1.485 128.5" fill="#1976D2" fill-rule="evenodd"/><path fill-opacity=".055" d="M105.5 1.445c-3.85.74-9.606 2.105-12.792 3.034-5.011 1.46-6.762 1.524-12.983.475-18.907-3.189-39.412 2.832-53.711 15.772C9.268 35.879 1.928 55.802 4.778 78.364c1.046 8.282.973 10.012-.662 15.73-5.233 18.299-5.528 47.198-.667 65.394 2.268 8.49 2.509 10.62 1.61 14.193-1.721 6.835-1.282 21.127.913 29.71 5.802 22.686 23.113 40.192 46.024 46.541 8.305 2.301 21.674 2.761 29.773 1.024 4.205-.902 6.221-.682 14.799 1.613 8.14 2.178 12.872 2.751 26.221 3.175 17.264.549 26.058-.328 39.091-3.899 6.59-1.806 8.077-1.891 13.891-.794 3.988.753 9.845.992 15.12.617 16.216-1.152 30.123-7.518 41.691-19.086 14.749-14.75 21.353-34.409 18.443-54.908-1.086-7.65-1.008-9.116.845-15.803 1.124-4.054 2.347-9.744 2.718-12.643.372-2.9 1.066-5.514 1.544-5.809.477-.296.868-7.737.868-16.537 0-10.412-.349-15.784-1-15.382-.575.356-1.004-.575-1.009-2.191-.005-1.545-1.149-7.283-2.542-12.751-2.163-8.491-2.38-10.651-1.491-14.799 3.292-15.35-.608-35.128-9.597-48.666C227.035 11.516 200.424.292 174.815 5.026c-4.854.898-6.795.696-15.433-1.602C150.776 1.134 147.112.75 131 .447c-12.704-.238-20.693.074-25.5.998M58.703 11.681c-23.414 3.955-42.738 23.05-47.216 46.657-.818 4.311-1.472 10.161-1.454 13l.033 5.162L14.53 68c11.241-21.401 31.852-42.141 52.72-53.05 4.263-2.228 7.75-4.141 7.749-4.251-.003-.688-9.961-.088-16.296.982m129.546 3.083c12.412 6.719 19.867 12.346 30.778 23.231 9.32 9.298 18.122 21.254 23.379 31.755 1.445 2.887 2.837 5.25 3.093 5.25.255 0 .25-3.85-.011-8.557-1.209-21.719-13.173-40.291-31.86-49.452-8.912-4.369-19.632-6.999-28.443-6.977l-5.685.014 8.749 4.736M54 28.378c0 .207.788.995 1.75 1.75 1.586 1.243 1.621 1.208.378-.378C54.821 28.084 54 27.555 54 28.378m5 5c0 .207.788.995 1.75 1.75 1.586 1.243 1.621 1.208.378-.378C59.821 33.084 59 32.555 59 33.378M67.5 42c2.148 2.2 4.131 4 4.406 4 .275 0-1.258-1.8-3.406-4s-4.131-4-4.406-4c-.275 0 1.258 1.8 3.406 4m6.5 6.378c0 .207.787.995 1.75 1.75 1.586 1.243 1.621 1.208.378-.378C74.821 48.084 74 47.555 74 48.378M220.479 61.25 211.5 70.5l9.25-8.979c8.591-8.34 9.705-9.521 8.979-9.521-.149 0-4.311 4.163-9.25 9.25M79 53.378c0 .207.787.995 1.75 1.75 1.586 1.243 1.621 1.208.378-.378C79.821 53.084 79 52.555 79 53.378m-51 1c0 .207.788.995 1.75 1.75 1.586 1.243 1.621 1.208.378-.378C28.821 54.084 28 53.555 28 54.378m5 5c0 .207.788.995 1.75 1.75 1.586 1.243 1.621 1.208.378-.378C33.821 59.084 33 58.555 33 59.378M41.5 68c2.148 2.2 4.131 4 4.406 4 .275 0-1.258-1.8-3.406-4s-4.131-4-4.406-4c-.275 0 1.258 1.8 3.406 4m78.914-2.827C95.123 67.818 73.026 87.208 66.476 112.5c-2.02 7.802-2.008 23.27.024 31 6.01 22.863 23.384 40.246 45.96 45.985 7.652 1.945 23.428 1.945 31.08 0 22.088-5.615 40.33-23.857 45.945-45.945 1.945-7.652 1.945-23.428 0-31.08-5.627-22.135-24.223-40.684-45.985-45.869-8.017-1.91-14.548-2.311-23.086-1.418m88.458 7.577c-1.243 1.586-1.208 1.621.378.378 1.666-1.307 2.195-2.128 1.372-2.128-.207 0-.995.787-1.75 1.75M48 74.378c0 .207.788.995 1.75 1.75 1.586 1.243 1.621 1.208.378-.378C48.821 74.084 48 73.555 48 74.378m5 5c0 .207.788.995 1.75 1.75 1.586 1.243 1.621 1.208.378-.378C53.821 79.084 53 78.555 53 79.378M.407 128c0 9.075.152 12.787.337 8.25.185-4.537.185-11.963 0-16.5-.185-4.537-.337-.825-.337 8.25M199 173.378c0 .207.787.995 1.75 1.75 1.586 1.243 1.621 1.208.378-.378-1.307-1.666-2.128-2.195-2.128-1.372m5 5c0 .207.787.995 1.75 1.75 1.586 1.243 1.621 1.208.378-.378-1.307-1.666-2.128-2.195-2.128-1.372M10.03 185c-.027 5.327 1.942 17.421 3.501 21.5 6.573 17.205 19.908 30.582 35.797 35.91C56.761 244.903 75 246.988 75 245.346c0-.135-3.488-2.063-7.75-4.285-21.37-11.141-41.238-31.22-52.971-53.534l-4.221-8.027-.028 5.5m232.35 1.25c-10.493 20.761-30.906 42.167-50.387 52.84-12.24 6.707-12.149 6.561-3.956 6.286 9.613-.322 15.92-1.869 24.963-6.122 14.358-6.754 27.214-22.882 30.889-38.754 1.037-4.477 2.136-19.5 1.428-19.5-.156 0-1.477 2.363-2.937 5.25m-29.422 1c4.144 4.415 5.042 5.209 5.042 4.458 0-.16-2.137-2.298-4.75-4.75l-4.75-4.458 4.458 4.75m6.042 6.128c0 .207.787.995 1.75 1.75 1.586 1.243 1.621 1.208.378-.378-1.307-1.666-2.128-2.195-2.128-1.372m5 5c0 .207.787.995 1.75 1.75 1.586 1.243 1.621 1.208.378-.378-1.307-1.666-2.128-2.195-2.128-1.372m-51 1c0 .207.787.995 1.75 1.75 1.586 1.243 1.621 1.208.378-.378-1.307-1.666-2.128-2.195-2.128-1.372m5 5c0 .207.787.995 1.75 1.75 1.586 1.243 1.621 1.208.378-.378-1.307-1.666-2.128-2.195-2.128-1.372M71.872 209.75c-1.243 1.586-1.208 1.621.378.378.963-.755 1.75-1.543 1.75-1.75 0-.823-.821-.294-2.128 1.372m-11.393 11.5L51.5 230.5l9.25-8.979c8.591-8.34 9.705-9.521 8.979-9.521-.149 0-4.311 4.162-9.25 9.25M186 212.313c0 .172 1.463 1.635 3.25 3.25l3.25 2.937-2.937-3.25c-2.738-3.029-3.563-3.71-3.563-2.937m7 7.065c0 .207.787.995 1.75 1.75 1.586 1.243 1.621 1.208.378-.378-1.307-1.666-2.128-2.195-2.128-1.372m5 5c0 .207.787.995 1.75 1.75 1.586 1.243 1.621 1.208.378-.378-1.307-1.666-2.128-2.195-2.128-1.372" fill="#1976D2" fill-rule="evenodd"/><path fill-opacity=".254" d="M113 .581c-1.375.243-5.2.913-8.5 1.489-15.314 2.673-36.556 11.366-47.888 19.598l-4.887 3.551 23.041 23.042 23.042 23.042 6.947-2.575c15.385-5.703 31.105-5.703 46.49 0l6.947 2.575 23.042-23.042 23.041-23.042-4.887-3.551C188.711 13.912 170.444 6.158 154 2.402 147.722.969 118.219-.342 113 .581M21.668 56.612C13.661 67.635 5.655 86.964 1.834 104.5c-1.741 7.991-1.741 39.009 0 47 2.47 11.339 6.375 23.014 10.576 31.625 4.141 8.489 11.604 20.849 12.598 20.866.28.005 10.81-10.3 23.4-22.899L71.3 158.184l-2.574-6.943c-5.701-15.381-5.7-31.103.002-46.486l2.575-6.947-23.042-23.042-23.042-23.041-3.551 4.887m185.868 18.352L184.7 97.816l2.574 6.943c5.7 15.379 5.7 31.103 0 46.482l-2.574 6.943 22.9 22.949 22.9 22.95 2.665-3.151c4.297-5.083 14.444-25.72 17.174-34.932 4.519-15.244 5.135-19.801 5.135-38 0-18.224-.623-22.82-5.15-38-3.554-11.918-15.42-35.087-19.151-37.393-.441-.272-11.077 9.788-23.637 22.357M74.538 207.962c-12.621 12.63-22.742 23.152-22.492 23.384.25.232 3.379 2.304 6.954 4.604 12.859 8.276 28.361 14.482 45.5 18.216 8.016 1.747 39.02 1.742 47-.008 10.644-2.333 19.815-5.252 27.972-8.903 8.465-3.788 21.565-11.39 23.364-13.557.83-1.001-4.179-6.554-21.787-24.149L158.184 184.7l-6.943 2.574c-15.228 5.644-31.311 5.694-46.06.142-3.531-1.329-6.707-2.416-7.058-2.416-.352 0-10.965 10.333-23.585 22.962" fill="#1976D2" fill-rule="evenodd"/><path fill-opacity=".367" d="M117.5.577C103.105 2.583 98.141 3.628 89 6.582c-5.775 1.865-13.578 4.95-17.341 6.854-7.294 3.691-18.636 10.728-18.65 11.572-.005.28 10.248 10.758 22.784 23.285L98.586 71.07l4.553-2.013c13.818-6.113 31.969-6.61 46.485-1.275l8.124 2.986 22.846-22.862C206.661 21.821 205.307 25.413 192 17.625 179.332 10.211 166.035 5.25 151.248 2.42 143.506.939 122.959-.183 117.5.577M21.142 58.08C12.383 71.46 4.708 90.966 1.893 107c-1.85 10.537-1.631 33.527.419 44 2.182 11.144 5.972 22.61 10.743 32.5 3.849 7.979 10.891 19.5 11.919 19.5.298 0 10.77-10.238 23.272-22.75l22.729-22.75-2.501-6.185a62.026 62.026 0 0 1 0-46.63l2.501-6.185-22.729-22.75C35.744 63.237 25.28 53 24.992 53c-.288 0-2.021 2.286-3.85 5.08m186.714 17.67L185.228 98.5l2.978 8c5.225 14.037 4.976 30.827-.664 44.776l-2.517 6.224 22.729 22.75c12.502 12.512 22.958 22.746 23.238 22.741.279-.005 2.218-2.664 4.309-5.909 27.099-42.063 27.099-96.101 0-138.164-2.091-3.245-4.03-5.904-4.309-5.909-.28-.005-10.691 10.228-23.136 22.741M75.53 207.969C49.325 234.194 50.702 230.56 64 238.403c12.688 7.483 27.673 12.944 43 15.671 9.585 1.706 32.295 1.719 42 .026 9.997-1.745 26.891-7.26 35.341-11.536 7.294-3.691 18.636-10.728 18.65-11.572.005-.28-10.229-10.736-22.741-23.238l-22.75-22.729-6.224 2.517c-16.156 6.532-33.267 5.895-51.276-1.912-1.053-.456-8.348 6.204-24.47 22.339" fill="#1976D2" fill-rule="evenodd"/></svg>